<svg width="30" height="30" viewBox="0 0 30 30" fill="none" xmlns="http://www.w3.org/2000/svg">
<circle cx="15" cy="15" r="15" fill="#238BE6"/>
<path d="M7.6665 17.7505H9.86192C10.1314 17.7505 10.3973 17.811 10.6383 17.9283L12.5102 18.834C12.7513 18.9504 13.0171 19.0109 13.2875 19.0109H14.2427C15.1667 19.0109 15.9165 19.736 15.9165 20.6306C15.9165 20.6673 15.8918 20.6985 15.856 20.7085L13.5268 21.353C13.1088 21.4684 12.6631 21.428 12.2728 21.2393L10.2717 20.2713M11.6962 7.25647C13.0473 6.41863 14.228 6.75597 14.9366 7.29405C15.2272 7.51405 15.3729 7.62405 15.4582 7.62405C15.5434 7.62405 15.6892 7.51405 15.9798 7.29405C16.6883 6.75597 17.8681 6.41863 19.2202 7.25647C20.9948 8.35647 21.3963 11.9828 17.3043 15.0426C16.5243 15.6256 16.1347 15.9171 15.4582 15.9171C14.7817 15.9171 14.3921 15.6256 13.6129 15.0426C9.52 11.9828 9.9215 8.35555 11.6962 7.25647Z" stroke="white" stroke-width="1.65" stroke-linecap="round" stroke-linejoin="round"/>
<path d="M15.9165 20.0422L20.1268 18.7488C20.4933 18.6363 20.886 18.6425 21.2488 18.7664C21.6116 18.8904 21.926 19.1258 22.1471 19.439C22.4853 19.9065 22.3478 20.5775 21.8547 20.8617L14.9659 24.8373C14.7505 24.9619 14.512 25.0414 14.2649 25.0708C14.0178 25.1003 14.0832 25.0834 13.5286 25.0087L7.6665 23.2688" stroke="white" stroke-width="1.65" stroke-linecap="round" stroke-linejoin="round"/>
</svg>
