<svg width="111" height="24" viewBox="0 0 111 24" fill="none" xmlns="http://www.w3.org/2000/svg">
<path d="M9.136 14.312C9.27467 14.6213 9.28 14.9253 9.152 15.224C9.024 15.512 8.82133 15.7787 8.544 16.024C8.26667 16.2693 7.94667 16.4827 7.584 16.664C7.232 16.8453 6.896 16.9733 6.576 17.048C6.224 17.1227 5.85067 17.1547 5.456 17.144C5.072 17.144 4.68267 17.096 4.288 17C3.904 16.9147 3.52533 16.7867 3.152 16.616C2.78933 16.4347 2.45333 16.216 2.144 15.96C1.77067 15.6507 1.47733 15.2827 1.264 14.856C1.06133 14.4187 0.912 13.9547 0.816 13.464C0.72 12.9733 0.666667 12.4827 0.656 11.992C0.656 11.4907 0.672 11.0213 0.704 10.584C0.736 10.1893 0.816 9.77867 0.944 9.352C1.072 8.92533 1.248 8.50933 1.472 8.104C1.70667 7.688 1.984 7.304 2.304 6.952C2.63467 6.6 3.01867 6.30133 3.456 6.056C3.78667 5.864 4.15467 5.736 4.56 5.672C4.976 5.59733 5.392 5.58133 5.808 5.624C6.23467 5.656 6.63467 5.74667 7.008 5.896C7.392 6.03467 7.71733 6.22667 7.984 6.472C8.15467 6.62133 8.33067 6.82933 8.512 7.096C8.704 7.36267 8.84267 7.63467 8.928 7.912C9.01333 8.18933 9.01333 8.45067 8.928 8.696C8.85333 8.93067 8.64 9.09067 8.288 9.176C8.13867 9.21867 8.00533 9.22933 7.888 9.208C7.77067 9.176 7.664 9.128 7.568 9.064C7.472 8.98933 7.38133 8.904 7.296 8.808C7.21067 8.712 7.13067 8.616 7.056 8.52C6.8 8.21067 6.50133 8.00267 6.16 7.896C5.81867 7.77867 5.47733 7.752 5.136 7.816C4.80533 7.86933 4.49067 8.008 4.192 8.232C3.904 8.44533 3.68 8.72267 3.52 9.064C3.34933 9.42667 3.21067 9.82667 3.104 10.264C3.008 10.6907 2.95467 11.128 2.944 11.576C2.93333 12.0133 2.97067 12.44 3.056 12.856C3.152 13.272 3.312 13.64 3.536 13.96C3.70667 14.216 3.91467 14.424 4.16 14.584C4.416 14.744 4.688 14.856 4.976 14.92C5.264 14.984 5.552 14.9947 5.84 14.952C6.13867 14.9093 6.42667 14.8133 6.704 14.664C6.78933 14.6213 6.88 14.5627 6.976 14.488C7.08267 14.4027 7.18933 14.3173 7.296 14.232C7.40267 14.1467 7.50933 14.0667 7.616 13.992C7.73333 13.9173 7.856 13.864 7.984 13.832C8.176 13.768 8.384 13.7733 8.608 13.848C8.84267 13.9227 9.01867 14.0773 9.136 14.312ZM12.4026 10.264C12.7226 10.104 13.0586 9.992 13.4106 9.928C13.7626 9.85333 14.1093 9.83733 14.4506 9.88C14.8026 9.912 15.1386 10.0027 15.4586 10.152C15.7786 10.2907 16.0773 10.4933 16.3546 10.76C16.632 11.0373 16.8453 11.3413 16.9946 11.672C17.144 12.0027 17.2506 12.3707 17.3146 12.776C17.3573 13.0533 17.4266 13.3093 17.5226 13.544C17.6186 13.7787 17.72 14.0133 17.8266 14.248C17.944 14.4827 18.0506 14.7173 18.1466 14.952C18.2533 15.1867 18.3386 15.432 18.4026 15.688C18.456 15.9333 18.4346 16.1733 18.3386 16.408C18.2533 16.632 18.072 16.7707 17.7946 16.824C17.6346 16.856 17.48 16.8453 17.3306 16.792C17.192 16.728 17.064 16.6427 16.9466 16.536C16.8293 16.4187 16.7226 16.296 16.6266 16.168C16.5413 16.0293 16.4613 15.9013 16.3866 15.784C16.1413 16.104 15.8746 16.3547 15.5866 16.536C15.2986 16.7067 14.952 16.8187 14.5466 16.872C14.2053 16.9147 13.88 16.9253 13.5706 16.904C13.2613 16.8827 12.9306 16.824 12.5786 16.728C12.12 16.6107 11.7413 16.408 11.4426 16.12C11.1546 15.8213 10.9306 15.48 10.7706 15.096C10.6213 14.7013 10.5413 14.28 10.5306 13.832C10.52 13.384 10.5733 12.9413 10.6906 12.504C10.84 11.928 11.064 11.4587 11.3626 11.096C11.6613 10.7333 12.008 10.456 12.4026 10.264ZM12.8026 12.136C12.6533 12.2853 12.536 12.4613 12.4506 12.664C12.3653 12.8667 12.312 13.08 12.2906 13.304C12.28 13.528 12.3013 13.752 12.3546 13.976C12.408 14.2 12.4933 14.3973 12.6106 14.568C12.7173 14.7173 12.8986 14.8453 13.1546 14.952C13.4106 15.048 13.6773 15.1067 13.9546 15.128C14.2746 15.1493 14.552 15.064 14.7866 14.872C15.032 14.68 15.2133 14.44 15.3306 14.152C15.4586 13.8533 15.5173 13.5387 15.5066 13.208C15.496 12.8667 15.4053 12.5573 15.2346 12.28C15.1066 12.0773 14.936 11.928 14.7226 11.832C14.52 11.736 14.3013 11.688 14.0666 11.688C13.832 11.6773 13.5973 11.7147 13.3626 11.8C13.1386 11.8747 12.952 11.9867 12.8026 12.136ZM19.7498 11.336C19.7498 11.208 19.7498 11.064 19.7498 10.904C19.7498 10.7333 19.7551 10.5627 19.7658 10.392C19.7764 10.2107 19.7924 10.04 19.8138 9.88C19.8458 9.70933 19.8884 9.56 19.9418 9.432C20.0271 9.24 20.1604 9.112 20.3418 9.048C20.5231 8.97333 20.7204 8.94133 20.9338 8.952C21.1578 8.952 21.3338 8.98933 21.4618 9.064C21.5898 9.13867 21.6858 9.24 21.7498 9.368C21.8138 9.48533 21.8511 9.624 21.8618 9.784C21.8831 9.93333 21.8938 10.0933 21.8938 10.264C21.9898 10.0933 22.1178 9.95467 22.2778 9.848C22.4484 9.74133 22.6191 9.656 22.7898 9.592C22.9604 9.528 23.1151 9.48533 23.2538 9.464C23.3924 9.432 23.4724 9.416 23.4938 9.416C23.7604 9.39467 24.0004 9.38933 24.2138 9.4C24.4378 9.41067 24.6831 9.45867 24.9498 9.544C25.1204 9.608 25.2964 9.69867 25.4778 9.816C25.6591 9.92267 25.8191 10.0507 25.9578 10.2C26.0964 10.3493 26.1871 10.5147 26.2298 10.696C26.2831 10.8667 26.2618 11.048 26.1658 11.24C26.0164 11.5067 25.8511 11.64 25.6698 11.64C25.4884 11.6293 25.2911 11.5973 25.0778 11.544C24.9604 11.5227 24.8218 11.4747 24.6618 11.4C24.5018 11.3253 24.3631 11.2773 24.2458 11.256C23.8831 11.2027 23.5631 11.2293 23.2858 11.336C23.0084 11.4427 22.7684 11.5707 22.5658 11.72C22.3311 11.9013 22.1284 12.1093 21.9578 12.344V14.648C21.9578 14.936 21.9524 15.2347 21.9418 15.544C21.9418 15.8533 21.8991 16.136 21.8138 16.392C21.7391 16.6373 21.6058 16.84 21.4138 17C21.2324 17.1493 20.9658 17.2133 20.6138 17.192C20.4218 17.1813 20.2511 17.0907 20.1018 16.92C19.9524 16.7387 19.8618 16.5627 19.8298 16.392C19.8084 16.232 19.7924 16.04 19.7818 15.816C19.7711 15.592 19.7604 15.3573 19.7498 15.112C19.7498 14.8667 19.7498 14.6213 19.7498 14.376C19.7498 14.12 19.7498 13.8853 19.7498 13.672V11.336ZM32.1291 14.808C32.2571 14.776 32.3851 14.7547 32.5131 14.744C32.6518 14.7333 32.7745 14.7493 32.8811 14.792C32.9985 14.8347 33.0945 14.9093 33.1691 15.016C33.2438 15.112 33.2811 15.2507 33.2811 15.432C33.2811 15.56 33.2491 15.6827 33.1851 15.8C33.1211 15.9173 33.0411 16.024 32.9451 16.12C32.8491 16.216 32.7425 16.3013 32.6251 16.376C32.5078 16.44 32.3958 16.4933 32.2891 16.536C31.9798 16.6747 31.6225 16.7813 31.2171 16.856C30.8225 16.9307 30.4118 16.9573 29.9851 16.936C29.4091 16.9147 28.8545 16.8027 28.3211 16.6C27.7985 16.3867 27.3878 16.04 27.0891 15.56C26.8118 15.0907 26.6465 14.568 26.5931 13.992C26.5398 13.416 26.5665 12.872 26.6731 12.36C26.7905 11.7413 26.9878 11.24 27.2651 10.856C27.5531 10.4613 27.8945 10.1467 28.2891 9.912C28.7691 9.63467 29.3078 9.49067 29.9051 9.48C30.5025 9.46933 31.0731 9.58667 31.6171 9.832C31.9798 9.992 32.3051 10.2107 32.5931 10.488C32.8811 10.7547 33.0998 11.08 33.2491 11.464C33.2918 11.56 33.3238 11.6773 33.3451 11.816C33.3771 11.9547 33.3985 12.104 33.4091 12.264C33.4198 12.4133 33.4198 12.5627 33.4091 12.712C33.3985 12.8613 33.3718 12.9947 33.3291 13.112C33.2651 13.304 33.1851 13.4533 33.0891 13.56C32.9931 13.6667 32.8705 13.7467 32.7211 13.8C32.5718 13.8533 32.3905 13.8907 32.1771 13.912C31.9745 13.9227 31.7291 13.9333 31.4411 13.944C31.1851 13.9547 30.9451 13.96 30.7211 13.96C30.4971 13.96 30.2678 13.96 30.0331 13.96C29.7985 13.9493 29.5531 13.944 29.2971 13.944C29.0518 13.9333 28.7745 13.9227 28.4651 13.912C28.4331 14.1253 28.4598 14.312 28.5451 14.472C28.6411 14.6213 28.7691 14.7493 28.9291 14.856C29.0891 14.952 29.2705 15.0267 29.4731 15.08C29.6758 15.1333 29.8731 15.1653 30.0651 15.176C30.4278 15.1973 30.7745 15.1707 31.1051 15.096C31.4358 15.0107 31.7771 14.9147 32.1291 14.808ZM31.4411 11.704C31.2385 11.4693 31.0251 11.2987 30.8011 11.192C30.6305 11.1173 30.4491 11.0853 30.2571 11.096C30.0758 11.096 29.8998 11.1227 29.7291 11.176C29.4198 11.2507 29.1585 11.4107 28.9451 11.656C28.9238 11.6773 28.8865 11.7307 28.8331 11.816C28.7798 11.8907 28.7265 11.9707 28.6731 12.056C28.6305 12.1413 28.5985 12.2213 28.5771 12.296C28.5558 12.3707 28.5665 12.408 28.6091 12.408H31.7451C31.7345 12.2587 31.7078 12.136 31.6651 12.04C31.6225 11.9333 31.5478 11.8213 31.4411 11.704Z" fill="white"/>
<path d="M59.136 15.304L59.152 14.04L59.168 11.688C59.1787 11.3467 59.184 10.9947 59.184 10.632C59.184 10.2693 59.184 9.896 59.184 9.512C59.184 9.128 59.184 8.78667 59.184 8.488C59.184 8.18933 59.1947 7.85333 59.216 7.48V7.416C59.2267 7.30933 59.232 7.20267 59.232 7.096C59.2427 6.97867 59.248 6.86133 59.248 6.744C59.2587 6.552 59.3173 6.344 59.424 6.12C59.4987 5.97067 59.6107 5.84267 59.76 5.736C59.9307 5.65067 60.096 5.608 60.256 5.608C60.3413 5.608 60.416 5.61333 60.48 5.624C60.5547 5.624 60.624 5.62933 60.688 5.64C60.8267 5.66133 60.9493 5.72533 61.056 5.832C61.12 5.88533 61.1787 5.97067 61.232 6.088C61.2533 6.152 61.2693 6.216 61.28 6.28C61.3013 6.33333 61.3173 6.392 61.328 6.456C61.3387 6.53067 61.344 6.6 61.344 6.664C61.3547 6.728 61.36 6.792 61.36 6.856C61.36 6.93067 61.3547 7 61.344 7.064C61.344 7.11733 61.344 7.176 61.344 7.24V7.512L61.248 15.816V15.976C61.248 16.008 61.2427 16.0507 61.232 16.104C61.232 16.1467 61.2267 16.2 61.216 16.264C61.1947 16.3173 61.1733 16.376 61.152 16.44C61.1413 16.4933 61.1253 16.552 61.104 16.616C61.072 16.6693 61.0347 16.7227 60.992 16.776C60.96 16.8187 60.9173 16.8613 60.864 16.904C60.7787 16.9893 60.64 17.048 60.448 17.08C60.16 17.144 59.888 17.1173 59.632 17C59.504 16.9147 59.4133 16.808 59.36 16.68C59.328 16.648 59.312 16.616 59.312 16.584C59.3013 16.5627 59.2907 16.5467 59.28 16.536C59.2693 16.5253 59.2587 16.5093 59.248 16.488C59.2267 16.4347 59.2107 16.3813 59.2 16.328C59.1893 16.264 59.184 16.2 59.184 16.136C59.1733 16.0827 59.1627 16.0293 59.152 15.976C59.152 15.9227 59.1467 15.8693 59.136 15.816C59.1253 15.7307 59.1253 15.64 59.136 15.544V15.304ZM63.1404 11.288C63.1404 11.0427 63.135 10.7813 63.1244 10.504C63.1244 10.2267 63.1724 9.976 63.2684 9.752C63.3537 9.54933 63.4924 9.40533 63.6844 9.32C63.887 9.224 64.0844 9.20267 64.2764 9.256C64.4684 9.288 64.6177 9.34667 64.7244 9.432C64.831 9.51733 64.9057 9.61867 64.9484 9.736C65.0017 9.84267 65.0337 9.97067 65.0444 10.12C65.055 10.2587 65.0657 10.3973 65.0764 10.536C65.183 10.344 65.3164 10.1893 65.4764 10.072C65.6364 9.95467 65.8017 9.85867 65.9724 9.784C66.143 9.70933 66.303 9.656 66.4524 9.624C66.6124 9.592 66.735 9.576 66.8204 9.576C67.2257 9.576 67.6257 9.66667 68.0204 9.848C68.4257 10.0187 68.7617 10.264 69.0284 10.584C69.1777 10.776 69.2897 10.9787 69.3644 11.192C69.4497 11.3947 69.5084 11.608 69.5404 11.832C69.583 12.056 69.6097 12.2853 69.6204 12.52C69.631 12.744 69.6417 12.9733 69.6524 13.208C69.7057 13.8907 69.7057 14.568 69.6524 15.24C69.6417 15.3787 69.6364 15.5387 69.6364 15.72C69.6364 15.9013 69.6204 16.0827 69.5884 16.264C69.567 16.4347 69.519 16.5893 69.4444 16.728C69.3804 16.856 69.2684 16.936 69.1084 16.968C68.8844 17.0213 68.6977 17.032 68.5484 17C68.4097 16.9787 68.2977 16.9307 68.2124 16.856C68.127 16.7813 68.063 16.6853 68.0204 16.568C67.9777 16.4507 67.9404 16.3173 67.9084 16.168C67.887 16.0507 67.8657 15.9173 67.8444 15.768C67.8337 15.608 67.823 15.448 67.8124 15.288C67.8124 15.128 67.807 14.9733 67.7964 14.824C67.7964 14.664 67.7964 14.52 67.7964 14.392C67.7964 14.1893 67.791 13.9653 67.7804 13.72C67.7697 13.4747 67.7697 13.2453 67.7804 13.032C67.7804 12.5307 67.647 12.152 67.3804 11.896C67.1244 11.6293 66.7724 11.5173 66.3244 11.56C65.983 11.6027 65.6844 11.7413 65.4284 11.976C65.1724 12.2 65.0497 12.4933 65.0604 12.856C65.0604 12.9947 65.0604 13.1227 65.0604 13.24C65.0604 13.3573 65.055 13.4747 65.0444 13.592C65.0444 13.7093 65.0444 13.8373 65.0444 13.976C65.0444 14.1147 65.0444 14.2693 65.0444 14.44C65.0444 14.792 65.0444 15.1653 65.0444 15.56C65.0444 15.944 64.9964 16.2587 64.9004 16.504C64.815 16.76 64.671 16.936 64.4684 17.032C64.2657 17.128 64.0257 17.1013 63.7484 16.952C63.631 16.888 63.535 16.8027 63.4604 16.696C63.3964 16.5787 63.343 16.456 63.3004 16.328C63.2684 16.2 63.247 16.072 63.2364 15.944C63.2257 15.8053 63.215 15.6773 63.2044 15.56C63.1724 15.208 63.151 14.8827 63.1404 14.584C63.1404 14.2747 63.1404 13.944 63.1404 13.592V11.288ZM74.8078 14.184C74.6051 14.056 74.3758 13.9547 74.1198 13.88C73.8744 13.8053 73.6184 13.736 73.3518 13.672C73.0958 13.608 72.8451 13.5387 72.5998 13.464C72.3544 13.3787 72.1304 13.2613 71.9278 13.112C71.4904 12.7813 71.2344 12.376 71.1598 11.896C71.0958 11.4053 71.2024 10.9147 71.4798 10.424C71.6291 10.168 71.8264 9.96 72.0718 9.8C72.3171 9.62933 72.5838 9.50133 72.8718 9.416C73.1704 9.32 73.4744 9.26667 73.7838 9.256C74.0931 9.24533 74.3864 9.26133 74.6638 9.304C74.8451 9.336 75.0371 9.384 75.2398 9.448C75.4424 9.50133 75.6291 9.576 75.7998 9.672C75.9811 9.768 76.1411 9.89067 76.2798 10.04C76.4291 10.1787 76.5358 10.3547 76.5998 10.568C76.6424 10.7067 76.6478 10.84 76.6158 10.968C76.5944 11.096 76.5411 11.2027 76.4558 11.288C76.3811 11.3733 76.2798 11.4373 76.1518 11.48C76.0344 11.5227 75.9064 11.5333 75.7678 11.512C75.6078 11.48 75.4584 11.432 75.3198 11.368C75.1811 11.304 75.0424 11.2347 74.9038 11.16C74.7651 11.0853 74.6211 11.0213 74.4718 10.968C74.3331 10.9147 74.1838 10.888 74.0238 10.888C73.7784 10.8773 73.5758 10.92 73.4158 11.016C73.2558 11.112 73.1438 11.2293 73.0798 11.368C73.0264 11.5067 73.0318 11.656 73.0958 11.816C73.1704 11.976 73.3198 12.1147 73.5438 12.232C73.7464 12.3387 73.9704 12.424 74.2158 12.488C74.4611 12.552 74.7011 12.616 74.9358 12.68C75.1811 12.744 75.4158 12.8187 75.6398 12.904C75.8744 12.9893 76.0824 13.1067 76.2638 13.256C76.6158 13.544 76.8291 13.88 76.9038 14.264C76.9891 14.648 76.9678 15.0267 76.8398 15.4C76.7118 15.7733 76.4878 16.104 76.1678 16.392C75.8584 16.68 75.4904 16.872 75.0638 16.968C74.7544 17.032 74.4184 17.064 74.0558 17.064C73.7038 17.064 73.3518 17.0267 72.9998 16.952C72.6584 16.8773 72.3278 16.76 72.0078 16.6C71.6984 16.44 71.4371 16.2373 71.2238 15.992C71.0744 15.8213 70.9944 15.6293 70.9838 15.416C70.9838 15.192 71.0264 15 71.1118 14.84C71.2078 14.6693 71.3411 14.552 71.5118 14.488C71.6824 14.424 71.8744 14.4613 72.0878 14.6C72.2584 14.7173 72.4611 14.8347 72.6957 14.952C72.9304 15.0587 73.1651 15.144 73.3998 15.208C73.6344 15.272 73.8584 15.304 74.0718 15.304C74.2958 15.304 74.4878 15.256 74.6478 15.16C74.8824 15.0107 75.0051 14.84 75.0158 14.648C75.0264 14.4453 74.9571 14.2907 74.8078 14.184ZM80.2654 10.936C80.2654 11.2347 80.2654 11.5707 80.2654 11.944C80.276 12.3173 80.2814 12.7067 80.2814 13.112C80.2814 13.5067 80.2814 13.9013 80.2814 14.296C80.2814 14.68 80.276 15.0373 80.2654 15.368C80.2547 15.528 80.2387 15.704 80.2174 15.896C80.196 16.0773 80.1534 16.248 80.0894 16.408C80.0254 16.568 79.924 16.7013 79.7854 16.808C79.6574 16.904 79.4814 16.9467 79.2574 16.936C78.9267 16.9147 78.6867 16.7707 78.5374 16.504C78.3987 16.2373 78.3187 15.864 78.2974 15.384C78.2974 15.1387 78.292 14.856 78.2814 14.536C78.2814 14.216 78.276 13.8907 78.2654 13.56C78.2654 13.2293 78.2654 12.9093 78.2654 12.6C78.2654 12.28 78.2654 11.992 78.2654 11.736C78.2654 11.5867 78.26 11.4053 78.2494 11.192C78.2494 10.9787 78.2547 10.76 78.2654 10.536C78.276 10.312 78.3027 10.0987 78.3454 9.896C78.388 9.68267 78.4574 9.50667 78.5534 9.368C78.628 9.28267 78.7347 9.21867 78.8734 9.176C79.012 9.12267 79.156 9.096 79.3054 9.096C79.4654 9.096 79.6147 9.12267 79.7534 9.176C79.9027 9.22933 80.0094 9.304 80.0734 9.4C80.116 9.464 80.148 9.55467 80.1694 9.672C80.1907 9.78933 80.2067 9.92267 80.2174 10.072C80.2387 10.2107 80.2494 10.36 80.2494 10.52C80.26 10.6693 80.2654 10.808 80.2654 10.936ZM79.6574 7.704C79.3267 7.78933 79.0494 7.75733 78.8254 7.608C78.612 7.448 78.4787 7.21333 78.4254 6.904C78.3827 6.68 78.3987 6.48267 78.4734 6.312C78.548 6.14133 78.66 6.01333 78.8094 5.928C78.9587 5.832 79.1294 5.78933 79.3214 5.8C79.5134 5.81067 79.7054 5.88533 79.8974 6.024C80.0787 6.152 80.2067 6.30133 80.2814 6.472C80.3667 6.64267 80.3934 6.808 80.3614 6.968C80.34 7.128 80.2707 7.27733 80.1534 7.416C80.036 7.544 79.8707 7.64 79.6574 7.704ZM88.3113 13.976C88.3113 14.3173 88.3006 14.6853 88.2793 15.08C88.2686 15.4747 88.2526 15.8427 88.2313 16.184C88.2313 16.504 88.2153 16.824 88.1833 17.144C88.1619 17.4213 88.1193 17.72 88.0553 18.04C87.9913 18.3707 87.9006 18.6747 87.7833 18.952C87.6339 19.3147 87.4313 19.624 87.1753 19.88C86.9193 20.1467 86.5886 20.3387 86.1833 20.456C85.8419 20.5413 85.5219 20.5947 85.2233 20.616C84.9246 20.648 84.6046 20.6427 84.2633 20.6C84.0393 20.568 83.7993 20.504 83.5433 20.408C83.2873 20.3227 83.0473 20.2107 82.8233 20.072C82.5993 19.9333 82.4019 19.768 82.2313 19.576C82.0606 19.3947 81.9433 19.1867 81.8793 18.952C81.8046 18.664 81.7993 18.4133 81.8633 18.2C81.9379 17.9867 82.0499 17.832 82.1993 17.736C82.3486 17.64 82.5246 17.624 82.7273 17.688C82.9299 17.752 83.1219 17.9173 83.3033 18.184C83.4313 18.376 83.6179 18.5307 83.8633 18.648C84.1086 18.7653 84.3699 18.8347 84.6473 18.856C84.9246 18.8773 85.1913 18.84 85.4473 18.744C85.7139 18.6587 85.9219 18.504 86.0713 18.28C86.1779 18.12 86.2526 17.8907 86.2953 17.592C86.3486 17.2933 86.3806 17 86.3913 16.712C85.8473 16.936 85.2873 17.0213 84.7113 16.968C84.1459 16.904 83.6286 16.728 83.1593 16.44C82.7006 16.1413 82.3273 15.7467 82.0393 15.256C81.7619 14.7547 81.6446 14.1893 81.6873 13.56C81.7193 13.016 81.8313 12.504 82.0233 12.024C82.2259 11.544 82.5566 11.144 83.0153 10.824C83.3886 10.568 83.8099 10.4027 84.2793 10.328C84.7486 10.2427 85.2019 10.2 85.6393 10.2C85.8953 10.2 86.1459 10.2 86.3913 10.2C86.6473 10.2 86.8819 10.232 87.0953 10.296C87.3086 10.36 87.5006 10.4667 87.6713 10.616C87.8419 10.7653 87.9699 10.984 88.0553 11.272C88.1939 11.72 88.2686 12.1627 88.2793 12.6C88.3006 13.0373 88.3113 13.496 88.3113 13.976ZM85.2233 15.304C85.3299 15.304 85.4313 15.2933 85.5273 15.272C85.6339 15.2507 85.7353 15.224 85.8313 15.192C86.0126 15.128 86.1459 15.0427 86.2313 14.936C86.3273 14.8293 86.3913 14.712 86.4233 14.584C86.4553 14.4453 86.4659 14.296 86.4553 14.136C86.4553 13.976 86.4553 13.8107 86.4553 13.64C86.4553 13.5013 86.4499 13.3467 86.4393 13.176C86.4393 13.0053 86.4286 12.8453 86.4073 12.696C86.3859 12.536 86.3539 12.3973 86.3113 12.28C86.2686 12.1627 86.2046 12.088 86.1193 12.056C85.9699 12.0133 85.7993 11.9867 85.6073 11.976C85.4153 11.9547 85.2233 11.9547 85.0312 11.976C84.8393 11.9867 84.6526 12.024 84.4713 12.088C84.3006 12.1413 84.1566 12.216 84.0393 12.312C83.8793 12.4507 83.7566 12.6213 83.6713 12.824C83.5859 13.0267 83.5326 13.24 83.5113 13.464C83.5006 13.688 83.5166 13.9067 83.5593 14.12C83.6126 14.3333 83.7033 14.5253 83.8313 14.696C83.9806 14.9093 84.1833 15.064 84.4393 15.16C84.6953 15.256 84.9566 15.304 85.2233 15.304ZM95.8488 13.848C95.8594 14.0613 95.8648 14.2853 95.8648 14.52C95.8648 14.744 95.8594 14.952 95.8488 15.144C95.8381 15.432 95.8221 15.6987 95.8008 15.944C95.7794 16.1787 95.7368 16.3813 95.6728 16.552C95.6088 16.712 95.5074 16.8347 95.3688 16.92C95.2408 16.9947 95.0594 17.016 94.8248 16.984C94.5794 16.952 94.4034 16.8347 94.2968 16.632C94.1901 16.4293 94.1154 16.2 94.0728 15.944C94.0408 15.6773 94.0301 15.4107 94.0408 15.144C94.0514 14.8773 94.0514 14.6693 94.0408 14.52C94.0301 14.2853 94.0194 14.0187 94.0088 13.72C94.0088 13.4107 93.9768 13.1227 93.9128 12.856C93.8594 12.5787 93.7634 12.344 93.6248 12.152C93.4861 11.96 93.2781 11.8587 93.0008 11.848C92.6488 11.8267 92.3768 11.8533 92.1848 11.928C92.0034 12.0027 91.8701 12.1147 91.7848 12.264C91.6994 12.4027 91.6461 12.5733 91.6248 12.776C91.6141 12.9787 91.5928 13.1973 91.5608 13.432L91.5448 14.056V15.224C91.5448 15.416 91.5394 15.6187 91.5288 15.832C91.5288 16.0347 91.4968 16.2213 91.4328 16.392C91.3688 16.5627 91.2674 16.7067 91.1288 16.824C91.0008 16.9413 90.8088 17 90.5528 17C90.2328 17 89.9928 16.8987 89.8328 16.696C89.6834 16.4827 89.6088 16.2213 89.6088 15.912V6.712C89.6088 6.648 89.6088 6.58933 89.6088 6.536C89.6194 6.472 89.6301 6.408 89.6408 6.344C89.6621 6.28 89.6781 6.22133 89.6888 6.168C89.6994 6.104 89.7154 6.04533 89.7368 5.992C89.7688 5.88533 89.8221 5.80533 89.8968 5.752C89.9501 5.69867 90.0034 5.656 90.0568 5.624C90.1101 5.592 90.1688 5.57067 90.2328 5.56C90.2861 5.54933 90.3448 5.544 90.4088 5.544C90.4728 5.53333 90.5368 5.528 90.6008 5.528C90.7608 5.528 90.9154 5.576 91.0648 5.672C91.1288 5.71467 91.1874 5.76267 91.2408 5.816C91.2941 5.85867 91.3368 5.92267 91.3688 6.008C91.4541 6.21067 91.4968 6.40267 91.4968 6.584C91.5074 6.63733 91.5128 6.71733 91.5128 6.824C91.5234 6.92 91.5288 7.02133 91.5288 7.128C91.5288 7.23467 91.5288 7.34133 91.5288 7.448C91.5394 7.544 91.5448 7.61867 91.5448 7.672V7.752C91.5554 8.09333 91.5608 8.44 91.5608 8.792C91.5608 9.144 91.5608 9.50133 91.5608 9.864V10.136C92.0088 9.98667 92.4781 9.91733 92.9688 9.928C93.4594 9.928 93.8968 10.024 94.2808 10.216C94.6754 10.4187 94.9741 10.648 95.1768 10.904C95.3901 11.16 95.5448 11.4427 95.6408 11.752C95.7368 12.0613 95.7901 12.392 95.8008 12.744C95.8221 13.096 95.8381 13.464 95.8488 13.848ZM103.175 9.944C103.26 10.1467 103.266 10.3707 103.191 10.616C103.127 10.8613 103.004 11.0213 102.823 11.096C102.727 11.1387 102.599 11.176 102.439 11.208C102.279 11.2293 102.103 11.2507 101.911 11.272C101.73 11.2933 101.548 11.3093 101.367 11.32C101.186 11.3307 101.031 11.336 100.903 11.336C100.914 11.656 100.924 11.9867 100.935 12.328C100.946 12.6587 100.956 12.984 100.967 13.304C100.978 13.624 100.983 13.9333 100.983 14.232C100.983 14.52 100.978 14.7813 100.967 15.016C100.967 15.176 100.967 15.3627 100.967 15.576C100.967 15.7787 100.951 15.976 100.919 16.168C100.898 16.36 100.86 16.5307 100.807 16.68C100.754 16.8187 100.674 16.9093 100.567 16.952C100.236 17.0907 99.9325 17.128 99.6551 17.064C99.3885 17.0107 99.1965 16.8987 99.0791 16.728C98.9938 16.5893 98.9298 16.4293 98.8871 16.248C98.8445 16.056 98.8125 15.864 98.7911 15.672C98.7805 15.4693 98.7751 15.2773 98.7751 15.096C98.7858 14.904 98.7911 14.7387 98.7911 14.6C98.8018 14.152 98.8071 13.6453 98.8071 13.08C98.8178 12.504 98.8231 11.928 98.8231 11.352H98.5831C98.4551 11.352 98.2898 11.352 98.0871 11.352C97.8951 11.3413 97.6978 11.3253 97.4951 11.304C97.3031 11.272 97.1218 11.2347 96.9511 11.192C96.7805 11.1387 96.6578 11.064 96.5831 10.968C96.4658 10.8293 96.3911 10.68 96.3591 10.52C96.3378 10.36 96.3485 10.2107 96.3911 10.072C96.4445 9.92267 96.5245 9.79467 96.6311 9.688C96.7378 9.57067 96.8605 9.496 96.9991 9.464C97.1911 9.41067 97.4631 9.384 97.8151 9.384C98.1671 9.37333 98.4978 9.37333 98.8071 9.384C98.7965 9.27733 98.7911 9.176 98.7911 9.08C98.7911 8.97333 98.7858 8.872 98.7751 8.776C98.7645 8.648 98.7591 8.488 98.7591 8.296C98.7591 8.09333 98.7698 7.896 98.7911 7.704C98.8231 7.50133 98.8711 7.31467 98.9351 7.144C98.9991 6.96267 99.0898 6.824 99.2071 6.728C99.3671 6.6 99.5271 6.53067 99.6871 6.52C99.8578 6.49867 100.012 6.52 100.151 6.584C100.3 6.648 100.423 6.744 100.519 6.872C100.626 6.98933 100.7 7.12267 100.743 7.272C100.775 7.4 100.802 7.55467 100.823 7.736C100.844 7.90667 100.855 8.088 100.855 8.28C100.866 8.472 100.871 8.664 100.871 8.856C100.871 9.048 100.871 9.224 100.871 9.384H101.031C101.191 9.384 101.378 9.37867 101.591 9.368C101.804 9.35733 102.012 9.36267 102.215 9.384C102.428 9.40533 102.62 9.45867 102.791 9.544C102.962 9.61867 103.09 9.752 103.175 9.944ZM107.683 14.184C107.48 14.056 107.251 13.9547 106.995 13.88C106.749 13.8053 106.493 13.736 106.227 13.672C105.971 13.608 105.72 13.5387 105.475 13.464C105.229 13.3787 105.005 13.2613 104.803 13.112C104.365 12.7813 104.109 12.376 104.035 11.896C103.971 11.4053 104.077 10.9147 104.355 10.424C104.504 10.168 104.701 9.96 104.947 9.8C105.192 9.62933 105.459 9.50133 105.747 9.416C106.045 9.32 106.349 9.26667 106.659 9.256C106.968 9.24533 107.261 9.26133 107.539 9.304C107.72 9.336 107.912 9.384 108.115 9.448C108.317 9.50133 108.504 9.576 108.675 9.672C108.856 9.768 109.016 9.89067 109.155 10.04C109.304 10.1787 109.411 10.3547 109.475 10.568C109.517 10.7067 109.523 10.84 109.491 10.968C109.469 11.096 109.416 11.2027 109.331 11.288C109.256 11.3733 109.155 11.4373 109.027 11.48C108.909 11.5227 108.781 11.5333 108.643 11.512C108.483 11.48 108.333 11.432 108.195 11.368C108.056 11.304 107.917 11.2347 107.779 11.16C107.64 11.0853 107.496 11.0213 107.347 10.968C107.208 10.9147 107.059 10.888 106.899 10.888C106.653 10.8773 106.451 10.92 106.291 11.016C106.131 11.112 106.019 11.2293 105.955 11.368C105.901 11.5067 105.907 11.656 105.971 11.816C106.045 11.976 106.195 12.1147 106.419 12.232C106.621 12.3387 106.845 12.424 107.091 12.488C107.336 12.552 107.576 12.616 107.811 12.68C108.056 12.744 108.291 12.8187 108.515 12.904C108.749 12.9893 108.957 13.1067 109.139 13.256C109.491 13.544 109.704 13.88 109.779 14.264C109.864 14.648 109.843 15.0267 109.715 15.4C109.587 15.7733 109.363 16.104 109.043 16.392C108.733 16.68 108.365 16.872 107.939 16.968C107.629 17.032 107.293 17.064 106.931 17.064C106.579 17.064 106.227 17.0267 105.875 16.952C105.533 16.8773 105.203 16.76 104.883 16.6C104.573 16.44 104.312 16.2373 104.099 15.992C103.949 15.8213 103.869 15.6293 103.859 15.416C103.859 15.192 103.901 15 103.987 14.84C104.083 14.6693 104.216 14.552 104.387 14.488C104.557 14.424 104.749 14.4613 104.963 14.6C105.133 14.7173 105.336 14.8347 105.571 14.952C105.805 15.0587 106.04 15.144 106.275 15.208C106.509 15.272 106.733 15.304 106.947 15.304C107.171 15.304 107.363 15.256 107.523 15.16C107.757 15.0107 107.88 14.84 107.891 14.648C107.901 14.4453 107.832 14.2907 107.683 14.184Z" fill="white"/>
<path d="M38 15.0005H40.395C40.689 15.0005 40.979 15.0665 41.242 15.1945L43.284 16.1825C43.547 16.3095 43.837 16.3755 44.132 16.3755H45.174C46.182 16.3755 47 17.1665 47 18.1425C47 18.1825 46.973 18.2165 46.934 18.2275L44.393 18.9305C43.9371 19.0565 43.4509 19.0124 43.025 18.8065L40.842 17.7505M42.396 3.55251C43.87 2.63851 45.158 3.00651 45.931 3.59351C46.248 3.83351 46.407 3.95351 46.5 3.95351C46.593 3.95351 46.752 3.83351 47.069 3.59351C47.842 3.00651 49.129 2.63851 50.604 3.55251C52.54 4.75251 52.978 8.70851 48.514 12.0465C47.663 12.6825 47.238 13.0005 46.5 13.0005C45.762 13.0005 45.337 12.6825 44.487 12.0465C40.022 8.70851 40.46 4.75151 42.396 3.55251Z" stroke="white" stroke-width="1.65" stroke-linecap="round" stroke-linejoin="round"/>
<path d="M47 17.5005L51.593 16.0895C51.9929 15.9668 52.4213 15.9736 52.817 16.1088C53.2128 16.244 53.5558 16.5008 53.797 16.8425C54.166 17.3525 54.016 18.0845 53.478 18.3945L45.963 22.7315C45.728 22.8675 45.4678 22.9542 45.1982 22.9863C44.9287 23.0185 45 23 44.395 22.9185L38 21.0205" stroke="white" stroke-width="1.65" stroke-linecap="round" stroke-linejoin="round"/>
</svg>
